<?xml version="1.0" standalone="no"?><!DOCTYPE svg PUBLIC "-//W3C//DTD SVG 1.1//EN" "http://www.w3.org/Graphics/SVG/1.1/DTD/svg11.dtd"><svg t="1644390268558" class="icon" viewBox="0 0 1024 1024" version="1.1" xmlns="http://www.w3.org/2000/svg" p-id="21133" xmlns:xlink="http://www.w3.org/1999/xlink" width="200" height="200"><defs><style type="text/css"></style></defs><path d="M586.7008 142.08l70.5536 143.0016c11.7248 23.7568 34.4064 40.2432 60.672 44.0832l157.7984 22.9376c66.0992 9.6256 92.4672 90.8288 44.6464 137.4208l-114.176 111.3088c-18.9952 18.4832-27.648 45.1584-23.1936 71.3216l26.9312 157.1328c11.264 65.792-57.8048 116.0192-116.8896 84.9408l-141.1584-74.1888a80.51712 80.51712 0 0 0-74.9568 0l-141.1584 74.1888c-59.0848 31.0784-128.2048-19.0976-116.8896-84.9408l26.9312-157.1328c4.5056-26.112-4.1984-52.7872-23.1936-71.3216L108.4928 489.472c-47.8208-46.592-21.4528-127.7952 44.6464-137.4208l157.7984-22.9376c26.2656-3.7888 48.9472-20.2752 60.672-44.0832l70.5536-143.0016c29.5936-59.8528 114.944-59.8528 144.5376 0.0512z" fill="#F8B031" p-id="21134"></path><path d="M592.7424 159.3344l-12.1344-27.6992c-33.792-49.2544-110.6944-45.7728-138.3936 10.3936L371.6096 285.0304a80.65024 80.65024 0 0 1-60.672 44.0832l-157.7984 22.9376c-66.048 9.6256-92.416 90.8288-44.6464 137.4208l114.176 111.3088c18.9952 18.4832 27.648 45.1584 23.1936 71.3216l-26.9312 157.1328c-5.632 32.8704 8.8064 61.8496 32 78.7456l51.8656-238.2336c7.7312-35.4816-4.0448-72.448-30.9248-96.9216L147.8144 459.8784c-20.1216-18.3296-9.9328-51.7632 16.9984-55.7568l158.208-23.4496c38.1952-5.632 70.8096-30.464 86.3232-65.792 22.0672-50.2784 49.8688-105.9328 66.4576-142.2848 30.4128-66.4576 116.9408-13.2608 116.9408-13.2608z" fill="#FACF5D" p-id="21135"></path><path d="M557.824 109.6704c0.4096 0.256 0.768 0.512 1.1264 0.768-0.3584-0.256-0.7168-0.512-1.1264-0.768zM550.9632 105.7792c0.5632 0.256 1.0752 0.512 1.6384 0.8192-0.512-0.256-1.0752-0.512-1.6384-0.8192zM545.0752 103.1168l1.8432 0.768c-0.5632-0.256-1.1776-0.512-1.8432-0.768zM562.9952 113.2544c0.5632 0.4096 1.1264 0.8704 1.6896 1.3312a38.3488 38.3488 0 0 0-1.6896-1.3312zM578.0992 128.3072c0.4608 0.6144 0.9216 1.2288 1.3312 1.8432-0.4096-0.6144-0.8704-1.2288-1.3312-1.8432zM539.3408 101.0176c0.3584 0.1024 0.768 0.256 1.1264 0.4096-0.3584-0.1536-0.7168-0.256-1.1264-0.4096zM573.952 123.2384c0.3072 0.3584 0.6144 0.768 0.9728 1.1264-0.3584-0.3584-0.6656-0.768-0.9728-1.1264zM569.5488 118.784c-0.4608-0.4608-0.9728-0.8704-1.4336-1.28 0.4608 0.4096 0.9728 0.8192 1.4336 1.28zM500.1728 98.4064c-0.256 0.0512-0.512 0.0512-0.768 0.1024 0.256 0 0.512-0.0512 0.768-0.1024zM507.1872 97.4848l-1.7408 0.1536 1.7408-0.1536zM493.3632 99.8912c-0.1536 0.0512-0.3072 0.0512-0.4096 0.1024h0.0512c0.1536 0 0.256-0.0512 0.3584-0.1024zM920.3712 489.472c47.8208-46.592 21.4528-127.7952-44.6464-137.4208l-157.7984-22.9376c-26.2656-3.7888-48.9472-20.2752-60.672-44.0832l-70.5536-143.0016c-1.7408-3.584-3.7888-6.8608-5.888-9.984l11.9808 27.2896s-29.1328-17.8688-59.5456-19.9168c2.6624 5.2224 5.4272 11.1104 8.2432 17.7664 14.2336 33.7408 47.0528 103.1168 71.3728 153.9584a118.2208 118.2208 0 0 0 89.4976 65.9456l158.5152 23.3472c31.6928 2.8672 43.776 42.9056 18.8928 62.7712l-103.68 82.9952a141.17888 141.17888 0 0 0-48.4864 145.7152l32.512 125.6448c9.3184 35.9936-30.1568 64.9216-61.696 45.2096l-116.0704-72.5504a133.25312 133.25312 0 0 0-136.9088-2.6112c-48.4352 27.8016-107.8272 61.5424-126.976 71.1168-34.1504 17.0496-89.2928 11.2128-92.5184-70.2464l-6.9632 40.7552c-11.264 65.792 57.8048 116.0192 116.8896 84.9408l141.1584-74.1888a80.51712 80.51712 0 0 1 74.9568 0l141.1584 74.1888c59.0848 31.0784 128.2048-19.0976 116.8896-84.9408l-26.9312-157.1328c-4.5056-26.112 4.1984-52.7872 23.1936-71.3216l114.0736-111.3088zM513.4336 97.1776c-0.512 0-1.024 0.0512-1.536 0.0512 0.512 0 1.024-0.0512 1.536-0.0512zM531.9168 99.072zM525.568 97.9456c0.6144 0.1024 1.2288 0.2048 1.8432 0.256-0.6144-0.0512-1.2288-0.1536-1.8432-0.256zM519.5264 97.3312z" fill="#EA9518" p-id="21136"></path><path d="M730.624 933.7344c-14.4384 0-28.928-3.4816-42.3424-10.5472l-141.1584-74.1888c-20.48-10.8032-44.9536-10.8032-65.4336 0l-141.1584 74.1888c-30.8224 16.1792-67.4304 13.568-95.6416-6.912s-42.0352-54.4768-36.1472-88.832l26.9312-157.184c3.9424-22.8352-3.6352-46.08-20.224-62.2592L101.376 496.7936c-24.9344-24.32-33.7408-59.9552-22.9888-93.0816s38.8608-56.7808 73.3184-61.7984l157.7984-22.9376c22.8864-3.328 42.7008-17.7152 52.9408-38.4512l70.5536-143.0016c15.4112-31.232 46.592-50.6368 81.408-50.6368 34.816 0 65.9968 19.4048 81.408 50.6368l70.5536 143.0016c10.24 20.736 30.0544 35.1232 52.9408 38.4512l157.7984 22.9376c34.4576 5.0176 62.5664 28.672 73.3184 61.7984s1.9456 68.7616-22.9888 93.0816l-114.176 111.3088c-16.5888 16.1792-24.1664 39.424-20.224 62.2592l26.9312 157.184c5.888 34.304-7.936 68.352-36.1472 88.7808-15.8208 11.5712-34.4576 17.408-53.1968 17.408z m-216.2176-113.2544c14.4896 0 29.0304 3.4816 42.24 10.4448l141.1584 74.1888c24.2176 12.7488 51.9168 10.752 74.0864-5.376 22.1696-16.0768 32.6144-41.7792 27.9552-68.7616l-26.9312-157.184c-5.0688-29.44 4.7104-59.4944 26.112-80.384l114.176-111.3088c19.6096-19.0976 26.2656-46.08 17.8176-72.0896s-29.696-43.9296-56.7808-47.872l-157.7984-22.9376a90.76224 90.76224 0 0 1-68.352-49.664L577.536 146.5344c-12.1344-24.5248-35.6864-39.2192-63.0784-39.2192-27.392 0-50.944 14.6432-63.0784 39.2192L380.8256 289.5872a90.84928 90.84928 0 0 1-68.352 49.664L154.624 362.1888c-27.0848 3.9424-48.3328 21.8112-56.7808 47.872-8.448 26.0096-1.792 52.992 17.8176 72.0896l114.176 111.3088c21.4016 20.8896 31.1808 50.8928 26.112 80.384l-26.9312 157.184c-4.608 26.9824 5.8368 52.6848 27.9552 68.7616 22.1184 16.0768 49.8176 18.1248 74.0352 5.376l141.1584-74.1888a90.2144 90.2144 0 0 1 42.24-10.496z" fill="#4B2254" p-id="21137"></path></svg>